{"title":"Terminator Genisys (2015) 1080p[Dual Audio][ENG-HINDI ~{PHDR}~","uid":12759225,"size":4556467645,"categoryP":"video","categoryS":"hd___movies","magnet":"?xt=urn:btih:b9ef10a204a0b4ca603beddbfc62ff665c5b177d&amp;dn=Terminator+Genisys+%282015%29+1080p%5BDual+Audio%5D%5BENG-HINDI+%7E%7BPHDR%7D%7E&amp;tr=udp%3A%2F%2Ftracker.leechers-paradise.org%3A6969&amp;tr=udp%3A%2F%2Fzer0day.ch%3A1337&amp;tr=udp%3A%2F%2Fopen.demonii.com%3A1337&amp;tr=udp%3A%2F%2Ftracker.coppersurfer.tk%3A6969&amp;tr=udp%3A%2F%2Fexodus.desync.com%3A6969","seeders":1,"leechers":1,"uploader":"SaM","files":18,"time":1447506514,"description":"Terminator Genisys (2015) 1080p[Dual Audio][ENG(5.1)-HINDI(5.1)]~{PHDR}~\r\n\r\nStoryline :\r\n\r\nWhen John Connor, leader of the human resistance, sends Sgt. Kyle Reese back to 1984 to protect Sarah Connor and safeguard the future, an unexpected turn of events creates a fractured timeline.\r\n\r\nCast :\r\n\r\nArnold Schwarzenegger ... Guardian\r\nJason Clarke ... John Connor\r\nEmilia Clarke ... Sarah Connor\r\nJai Courtney ... Kyle Reese\r\nJ.K. Simmons ... O'Brien\r\nDayo Okeniyi ... Danny Dyson\r\n\r\nGenre :\r\n\r\nAction | Adventure | Sci-Fi | Thriller \r\n\r\nGeneral\r\n\r\nComplete name                            : Terminator Genisys (2015) 1080p[Dual Audio][ENG(5.1)-HINDI(5.1)]~{PHDR}~\r\nFormat                                   : Matroska\r\nFormat version                           : Version 4 / Version 2\r\nFile size                                : 4.20 GiB\r\nDuration                                 : 2h 5mn\r\nOverall bit rate                         : 4 784 Kbps\r\n\r\nVideo\r\nID                                       : 1\r\nFormat                                   : AVC\r\nFormat/Info                              : Advanced Video Codec\r\nFormat profile                           :   \r\nFormat settings, CABAC                   : Yes\r\nFormat settings, ReFrames                : 4 frames\r\nCodec ID                                 : V_MPEG4/ISO/AVC\r\nDuration                                 : 2h 5mn\r\nBit rate                                 : 3 679 Kbps\r\nWidth                                    : 1 920 pixels\r\nHeight                                   : 800 pixels\r\nDisplay aspect ratio                     : 2.40:1\r\nFrame rate mode                          : Constant\r\nFrame rate                               : 23.976 fps\r\nColor space                              : YUV\r\nChroma subsampling                       : 4:2:0\r\nBit depth                                : 8 bits\r\nScan type                                : Progressive\r\nBits/(Pixel*Frame)                       : 0.100\r\nStream size                              : 3.16 GiB (75%)\r\nWriting library                          : x264 core 148 r2597kMod e86f3a1\r\nDefault                                  : Yes\r\nForced                                   : No\r\n\r\nAudio #1\r\nID                                       : 2\r\nFormat                                   : AC-3\r\nFormat/Info                              : Audio Coding 3\r\nMode extension                           : CM (complete main)\r\nFormat settings, Endianness              : Big\r\nCodec ID                                 : A_AC3\r\nDuration                                 : 2h 5mn\r\nBit rate mode                            : Constant\r\nBit rate                                 : 448 Kbps\r\nChannel(s)                               : 6 channels\r\nChannel positions                        : Front: L C R, Side: L R, LFE\r\nSampling rate                            : 48.0 KHz\r\nBit depth                                : 16 bits\r\nCompression mode                         : Lossy\r\nStream size                              : 403 MiB (9%)\r\nTitle                                    : DVD ~{PHDR}~\r\nLanguage                                 : Hindi\r\nDefault                                  : No\r\nForced                                   : No\r\n\r\nAudio #2\r\nID                                       : 3\r\nFormat                                   : AC-3\r\nFormat/Info                              : Audio Coding 3\r\nMode extension                           : CM (complete main)\r\nFormat settings, Endianness              : Big\r\nCodec ID                                 : A_AC3\r\nDuration                                 : 2h 5mn\r\nBit rate mode                            : Constant\r\nBit rate                                 : 640 Kbps\r\nChannel(s)                               : 6 channels\r\nChannel positions                        : Front: L C R, Side: L R, LFE\r\nSampling rate                            : 48.0 KHz\r\nBit depth                                : 16 bits\r\nCompression mode                         : Lossy\r\nStream size                              : 576 MiB (13%)\r\nTitle                                    : Bluray~{PHDR}~\r\nLanguage                                 : English\r\nDefault                                  : Yes\r\nForced                                   : No\r\n\r\nText #1\r\nID                                       : 4\r\nFormat                                   : PGS\r\nMuxing mode                              : zlib\r\nCodec ID                                 : S_HDMV/PGS\r\nCodec ID/Info                            : The same subtitle format used on BDs/HD-DVDs\r\nLanguage                                 : English\r\nDefault                                  : Yes\r\nForced                                   : No\r\n\r\nText #2\r\nID                                       : 5\r\nFormat                                   : PGS\r\nMuxing mode                              : zlib\r\nCodec ID                                 : S_HDMV/PGS\r\nCodec ID/Info                            : The same subtitle format used on BDs/HD-DVDs\r\nDefault                                  : No\r\nForced                                   : No\r\n\r\n \nhttp://extraimago.com/image/42P \nhttp://extraimago.com/image/42U \nhttp://extraimago.com/image/42M \nhttp://extraimago.com/image/429 \nhttp://extraimago.com/image/423 \nhttp://extraimago.com/image/42b \nhttp://extraimago.com/image/42h \nhttp://extraimago.com/image/42d \nhttp://extraimago.com/image/42I \nhttp://extraimago.com/image/42l \nhttp://extraimago.com/image/42i \nhttp://extraimago.com/image/42m \nhttp://extraimago.com/image/42R \nhttp://extraimago.com/image/42Q \nhttp://extraimago.com/image/42L","torrent":{"xt":"urn:btih:b9ef10a204a0b4ca603beddbfc62ff665c5b177d","amp;dn":"Terminator+Genisys+%282015%29+1080p%5BDual+Audio%5D%5BENG-HINDI+%7E%7BPHDR%7D%7E","amp;tr":["udp%3A%2F%2Ftracker.leechers-paradise.org%3A6969","udp%3A%2F%2Fzer0day.ch%3A1337","udp%3A%2F%2Fopen.demonii.com%3A1337","udp%3A%2F%2Ftracker.coppersurfer.tk%3A6969","udp%3A%2F%2Fexodus.desync.com%3A6969"],"infoHash":"b9ef10a204a0b4ca603beddbfc62ff665c5b177d","infoHashBuffer":{"type":"Buffer","data":[185,239,16,162,4,160,180,202,96,59,237,219,252,98,255,102,92,91,23,125]},"announce":[],"urlList":[]}}